<svg aria-hidden="true" style="position:absolute;width:0;height:0" xmlns="http://www.w3.org/2000/svg" overflow="hidden"><defs><symbol id="icon-ico_facebook" viewBox="0 0 16 32"><path d="M14.879.245v5.072s-3.738-.373-4.674 1.06c-.512.783-.208 3.077-.254 4.724h4.959c-.418 1.925-.719 3.23-1.028 4.896H9.924v15.759h-6.87V16.059H.131v-4.958h2.891c.148-3.626.203-7.217 2.005-9.046C7.05-.002 8.981.246 14.879.246z"/></symbol><symbol id="icon-ico_instagram" viewBox="0 0 32 32"><path d="M27.938 31.754H4.307a3.939 3.939 0 01-3.938-3.94V4.184A3.94 3.94 0 014.307.244h23.631a3.939 3.939 0 013.938 3.94v23.63a3.94 3.94 0 01-3.938 3.94zM16.123 9.894a6.1 6.1 0 00-5.536 3.545h-.006c-.01.022-.017.046-.027.068-.058.129-.108.262-.158.395-.023.065-.049.128-.07.192a5.51 5.51 0 00-.117.418c-.017.065-.037.13-.052.197a6.11 6.11 0 00-.075.453c-.009.062-.021.122-.028.185a6.104 6.104 0 006.069 6.757 6.104 6.104 0 006.069-6.757c-.007-.063-.02-.123-.028-.185a6.11 6.11 0 00-.075-.453c-.015-.066-.034-.132-.052-.197a4.87 4.87 0 00-.117-.418c-.021-.064-.047-.127-.07-.192a6.132 6.132 0 00-.158-.395c-.01-.022-.017-.046-.027-.068h-.006a6.1 6.1 0 00-5.536-3.545zm12.209-4.529c0-.87-.705-1.574-1.575-1.574h-3.151c-.87 0-1.575.704-1.575 1.574v3.152c0 .87.705 1.575 1.575 1.575h3.151c.87 0 1.575-.705 1.575-1.575V5.365zm0 8.074h-2.905c.224.816.345 1.675.345 2.561 0 5.329-4.32 9.648-9.649 9.648S6.474 21.329 6.474 16c0-.886.121-1.745.345-2.561H3.914v13.194c0 .871.705 1.577 1.575 1.577h21.268c.87 0 1.575-.705 1.575-1.577V13.439z"/></symbol><symbol id="icon-ico_twitter" viewBox="0 0 32 32"><path d="M21.554 3.201c2.503-.044 3.836.868 5.109 2.027 1.081-.092 2.485-.695 3.312-1.116l.804-.439c-.473 1.276-1.113 2.276-2.097 3.035-.219.167-.436.395-.71.502v.016c1.403-.014 2.56-.647 3.659-.991v.016c-.577.917-1.359 1.849-2.192 2.516l-1.009.801c.018 1.486-.022 2.903-.299 4.151-1.615 7.255-5.893 12.181-12.663 14.292-2.432.757-6.361 1.068-9.147.377-1.381-.342-2.629-.73-3.799-1.242a14.921 14.921 0 01-1.83-.944c-.19-.114-.378-.23-.567-.345.628.018 1.364.192 2.065.078.636-.102 1.259-.075 1.846-.203 1.462-.321 2.761-.746 3.878-1.401.543-.318 1.366-.689 1.751-1.147-.726.012-1.385-.156-1.924-.346-2.091-.738-3.308-2.096-4.101-4.135.634.07 2.459.235 2.886-.126-.798-.044-1.564-.506-2.113-.849-1.682-1.052-3.054-2.817-3.044-5.534l.662.314c.423.178.853.273 1.356.378.213.044.639.169.884.078h-.032c-.325-.378-.855-.63-1.183-1.038-1.079-1.34-2.09-3.404-1.451-5.863.162-.624.42-1.174.694-1.682l.032.015c.126.263.406.457.583.677.551.683 1.231 1.297 1.924 1.839 2.361 1.846 4.486 2.981 7.9 3.82.866.214 1.867.377 2.902.378-.29-.846-.197-2.215.031-3.034.576-2.06 1.825-3.543 3.659-4.34.438-.19.924-.329 1.435-.441l.789-.094z"/></symbol><symbol id="icon-bubble" viewBox="0 0 32 32"><path d="M16 2c8.837 0 16 5.82 16 13s-7.163 13-16 13a19.66 19.66 0 01-2.495-.158C10.068 31.279 5.966 31.895 2 31.986v-.841C4.142 30.096 6 28.184 6 26c0-.305-.024-.604-.068-.897C2.313 22.72 0 19.079 0 15 0 7.82 7.163 2 16 2z"/></symbol></defs></svg>